<svg xmlns="http://www.w3.org/2000/svg" xmlns:xlink="http://www.w3.org/1999/xlink" width="100" viewBox="0 0 75 52.499999" height="70" preserveAspectRatio="xMidYMid meet"><defs><clipPath id="3e32570dac"><path d="M 8 2 L 69 2 L 69 51 L 8 51 Z M 8 2 " clip-rule="nonzero"></path></clipPath><clipPath id="349efa84c4"><path d="M 9.03125 52.003906 L 7.742188 2.242188 L 67.902344 0.6875 L 69.1875 50.445312 Z M 9.03125 52.003906 " clip-rule="nonzero"></path></clipPath><clipPath id="911c36a204"><path d="M 7.753906 2.617188 L 9.042969 52.375 L 69.199219 50.816406 L 67.910156 1.058594 Z M 7.753906 2.617188 " clip-rule="nonzero"></path></clipPath><clipPath id="e2014c9832"><path d="M 7.753906 2.617188 L 9.042969 52.375 L 69.199219 50.816406 L 67.910156 1.058594 Z M 7.753906 2.617188 " clip-rule="nonzero"></path></clipPath></defs><g clip-path="url(#3e32570dac)"><g clip-path="url(#349efa84c4)"><g clip-path="url(#911c36a204)"><g clip-path="url(#e2014c9832)"><path d="M 9.363281 2.597656 C 7.816406 5.164062 8.359375 7.628906 9.238281 9.824219 C 10.453125 12.851562 11.898438 15.871094 13.742188 18.542969 C 22.179688 30.792969 33.96875 37.875 48.328125 40.640625 C 52.023438 41.351562 55.832031 41.476562 59.933594 41.90625 C 58.074219 45.398438 54.34375 47.238281 52.1875 50.789062 C 53.882812 51.195312 54.949219 50.320312 55.910156 49.5625 C 59.660156 46.609375 63.382812 43.613281 67.015625 40.515625 C 68.78125 39.011719 68.855469 37.878906 67.304688 36.363281 C 64.097656 33.226562 60.265625 31.285156 55.777344 30.835938 C 55.582031 30.816406 55.355469 31.132812 54.925781 31.457031 C 55.972656 35.105469 60.582031 34.105469 62.382812 37.277344 C 56.554688 38.773438 50.996094 37.902344 45.496094 36.484375 C 39.8125 35.019531 34.320312 33.027344 29.386719 29.703125 C 24.585938 26.464844 20.605469 22.363281 16.945312 17.882812 C 13.277344 13.398438 10.878906 8.292969 9.363281 2.597656 Z M 9.363281 2.597656 " fill-opacity="1" fill-rule="nonzero"></path></g></g></g></g></svg>