<svg xmlns="http://www.w3.org/2000/svg" viewBox="0 0 678 678"><defs><style>.cls-2{opacity:.75;mix-blend-mode:multiply}.cls-3{fill:#06591b}.cls-4{fill:#4c9b45}.cls-5{fill:#fff}.cls-11{fill:#666;stroke-width:.25px}.cls-11,.cls-12{stroke-miterlimit:10}.cls-8{fill:#fefff3}.cls-11{stroke:#666}.cls-12{fill:#f9f6f4;stroke:#f9f6f4}</style></defs><g style="isolation:isolate"><g id="Layer_1" data-name="Layer 1"><path class="cls-3" d="M64.91 483.93l-62.1 22.7 48.57 42.26v57s121.27-51.62 182.79-56.53l-87.82-92.86zM615.68 480.45l59.51 21.75-46.54 40.5v54.63s-95.43-44.18-154.38-48.89l63.36-94.27z"></path><path class="cls-3" d="M627.81 156.05a20.3 20.3 0 00-19.41-19.65c-25.66-1.16-71-8-89.73-40.35-15.19-26.23-20.22-45.83-21.74-57.91a20.26 20.26 0 00-16.63-17.42c-22.65-4-68.19-10.13-133.12-10.13s-110.46 6.15-133.11 10.13a20.26 20.26 0 00-16.63 17.42c-1.52 12.08-6.56 31.68-21.74 57.91-18.7 32.38-64.07 39.19-89.7 40.35a20.3 20.3 0 00-19.41 19.65c-1.4 47-1 170.52 34.66 288C139 568.71 279.55 641.21 329.64 663.66a42.92 42.92 0 0035.09 0c50.09-22.45 190.6-94.95 228.42-219.65 35.61-117.44 36.06-240.95 34.66-287.96z"></path><path class="cls-4" d="M347.05 49c-17.25 0-106 7.64-122 11.48l-21.81 60.26-30.44 28.73-61.41 13.2-6.73 18.33 10.17 159c22.27 95 130.63 98.83 232.43 98.83 101.27 0 211.36-17.21 234.17-111.46l5-161.27-87.69-32.71L471 58l-82.44-5.17C373 49.25 363.76 49 347.05 49z"></path><path class="cls-3" d="M468.86 217.5l32.33 34.16-28.52-19.51v37.39l-8.36-17.88-26.51 6.98 31.06-41.14z"></path><path class="cls-5" d="M258.27 261.84l-40.69-57.35-75.41 95.58 75.17-82.36 40.93 44.13z"></path><path class="cls-3" d="M174.82 277.6l39.79-51.15 17.05 20.11-17.93-9.19-38.91 40.23z"></path><path class="cls-5" d="M577.57 287.75a401.61 401.61 0 00-38.24 55.91c2.84-.3 5.69-.55 8.53-.78q-7.87 12.66-14.78 25.59-8.22-17.25-17.91-34.13c2.84.25 5.69.53 8.53.85a437.79 437.79 0 00-38.24-60.43 437.79 437.79 0 00-38.24 60.43c2.84-.32 5.69-.6 8.53-.85q-9.87 17.18-18.23 34.78-3.28-8.58-6.83-17.09 5.52.66 11 1.49-8.52-21.84-18.66-43.2 4.26.45 8.53 1a556.23 556.23 0 00-38.24-73.18 556.23 556.23 0 00-38.24 73.18c2.84-.39 5.69-.73 8.53-1q-8.77 18.48-16.35 37.36-7.56-18.87-16.34-37.36 4.26.45 8.53 1a556.23 556.23 0 00-38.24-73.18A556.23 556.23 0 00263 311.35c2.84-.39 5.69-.73 8.53-1q-10.12 21.33-18.66 43.2 5.5-.84 11-1.49-3.54 8.5-6.83 17.09-8.35-17.58-18.23-34.78 4.26.38 8.53.85a437.79 437.79 0 00-38.24-60.43 437.79 437.79 0 00-38.24 60.43c2.84-.32 5.69-.6 8.53-.85q-9.69 16.86-17.92 34.13-6.9-12.92-14.77-25.59c2.84.23 5.69.48 8.53.78A401.61 401.61 0 00117 287.75c-11.75 14.44 2 23.51-7.28 38.77l12.12 63.65c.89.69 5.85 3.8 6.73 4.49 8.28 6.48 3.06 36.5 10.32 43.65 2.67 2.64 18.52-6 21.06-3.24.22 0 9.5-3.26 9.72-3.24-.06.16 21.62 25.47 9.72 3.24 4.84 5.34-4.34-7.64 0-1.62l1.2-5.89c6-.53 12.11-.91 18.17-1.1v19.26l2.52 2.52h18.18v-21.78a334.13 334.13 0 0145.77 4.59c-.8-2.23-1.62-4.45-2.45-6.68a276.41 276.41 0 0128.09-2.51v26.38h20.7v-26.38q13.34.51 26.63 2.31c-.33 1.08-.67 2.17-1 3.26 3.35-.7 6.7-1.31 10.06-1.87 3.36.56 6.72 1.17 10.07 1.87-.32-1.09-.66-2.18-1-3.26q13.29-1.82 26.63-2.31v26.38h20.7v-26.38a276.41 276.41 0 0128.09 2.51c-.83 2.23-1.65 4.45-2.45 6.68a334.13 334.13 0 0145.77-4.59v21.78h18.18l2.52-2.52v-19.26q9.1.29 18.18 1.08l46.16 7.53 25.93-103.69c-9.27-15.26 3.28-29.19-8.47-43.63zM162 389.39q-3.66-7.36-7.64-14.65 5.52.5 11 1.14-1.54-3-3.15-6 4.77-.6 9.55-1.06-5.13 10.18-9.76 20.57zm90.54-8.12q-2.94-6.25-6.07-12.48 5.15.49 10.28 1.14-2.16 5.66-4.21 11.34zm94.75 15.06c-.38-1.09-.75-2.18-1.14-3.27l1.14-.19 1.15.19c-.39 1.09-.76 2.18-1.15 3.27zm0-22.24Q343.15 363 338.58 352c2.22.26 4.43.55 6.65.86l-.25.63 2.31-.33 2.32.33-.25-.63c2.22-.31 4.43-.6 6.65-.86q-4.56 11-8.72 22.09zm94.76 7.18q-2.06-5.68-4.21-11.34 5.13-.65 10.28-1.14-3.12 6.21-6.07 12.48zM532.22 407c-.16-.38-.31-.75-.48-1.13.36 0 .71-.07 1.06-.12-.2.46-.39.87-.58 1.25zm.37-17.65Q528 379 522.8 368.79q4.79.46 9.55 1.06-1.61 3-3.15 6 5.5-.64 11-1.14-3.94 7.29-7.61 14.68z"></path><circle cx="406.84" cy="143.22" r="41.79" fill="#eaff7f"></circle><path class="cls-5" d="M258.27 214.47l68.22-90.15 103.9 120.71 34.38-45.84 51.96 52.71-51.68-44.75-35.1 46.84L327.1 136.44l-68.83 78.03z"></path><path class="cls-3" d="M320.36 153.58l34.12 39.87-33.44-10.01-20.22 53.93-7.78-22.82-41.63 18.89 68.95-79.86z"></path><path stroke-miterlimit="10" stroke="#070707" fill="#666" stroke-width=".25" d="M348.19 328.41L169.28 495.86l45.78 55.87 133.13 72.68 48-25 78.1-46.06 56.83-60.69-182.93-164.25z"></path><path class="cls-5" d="M222.4 451.89c3.34-3.94 125.79-118.48 125.79-118.48l132.31 122.3-132.31-114.3z"></path><path class="cls-5" d="M349.59 354.28l-2.48 15.23h6.34l-3.86-15.23zM349.59 378.19l-2.48 17.74h8.87l-4.03-17.74h-2.36z"></path><path class="cls-8" d="M349.53 405.91l-4.86 25.92 14.92.57-5.2-26.49h-4.86zM348.54 511.8l-5.15 36.69h18.35l-8.32-36.69h-4.88z"></path><path class="cls-5" d="M347.91 569.55l-4.52 38.77h19.1l-4.86-38.77h-9.72z"></path><path d="M347.05 52.86c-56.45 0-96 5.51-114.47 8.8A14 14 0 00221.1 73.8c-1.33 10.68-5.74 28.35-19.24 51.91-17.08 29.79-57.75 36-80.47 37A14.16 14.16 0 00108 176.43c-1.22 41.33-.77 148.46 29.81 250.3C169.49 532.3 285.1 594.48 333.33 616.31a33.2 33.2 0 0027.45 0c48.23-21.83 163.84-84 195.54-189.58 30.57-101.84 31-209 29.81-250.3a14.16 14.16 0 00-13.41-13.71c-22.72-1-63.39-7.22-80.47-37-13.5-23.57-17.91-41.24-19.25-51.92a14 14 0 00-11.48-12.14c-18.52-3.29-58.01-8.8-114.47-8.8zm0 573.55a40 40 0 01-16.61-3.59c-49.11-22.23-166.86-85.65-199.4-194C100.15 326 99.69 217.9 100.92 176.21a21.29 21.29 0 0120.15-20.62c21.28-1 59.28-6.6 74.68-33.45 12.91-22.53 17.1-39.2 18.34-49.22a21.07 21.07 0 0117.27-18.29c18.75-3.32 58.71-8.9 115.69-8.9s96.95 5.58 115.7 8.9A21.07 21.07 0 01480 72.92c1.24 10 5.43 26.69 18.34 49.22 15.4 26.85 53.4 32.48 74.68 33.45a21.29 21.29 0 0120.15 20.62c1.25 41.69.83 149.79-30.1 252.59-32.54 108.37-150.29 171.79-199.41 194a40 40 0 01-16.61 3.61z" stroke-width="4" stroke="#fff" stroke-miterlimit="10" fill="#fff"></path><path class="cls-4" d="M53 459.38l38.92 110.17s260.85-82.63 493.14-1.25l46.38-108.92s-231.68-105.31-578.44 0z"></path><path class="cls-4" d="M69.24 462.42l31.2 87.88s236.38-66.73 480-1l34.37-87.25s-225.58-86.11-545.57.37z"></path><path d="M69.24 462.42l31.2 87.88s236.38-66.73 480-1l34.37-87.25s-225.58-86.11-545.57.37z" fill="none" stroke="#fff" stroke-miterlimit="10"></path><path class="cls-11" d="M139.55 478.68a15.19 15.19 0 0111.8 2.12 15.39 15.39 0 01-5.4 28 15 15 0 01-11.67-2.16 14.67 14.67 0 01-6.55-9.67 15.69 15.69 0 01.43-8.08 15.12 15.12 0 0111.39-10.17zm.7 2.76a12.13 12.13 0 00-5.7 2.9 12.25 12.25 0 00-3.54 5.38 12.73 12.73 0 00-.32 6.59 12.32 12.32 0 0014.58 9.69 12.52 12.52 0 005.85-2.89 11.81 11.81 0 003.53-5.34 12.66 12.66 0 00.31-6.57 12.37 12.37 0 00-2.85-5.85 12.13 12.13 0 00-5.39-3.5 12.41 12.41 0 00-6.47-.41zM161.67 475.15l2.88-.48 2.92 17.43a35.6 35.6 0 00.77 3.85 6.41 6.41 0 001.48 2.68 5.89 5.89 0 002.74 1.52 7.63 7.63 0 003.4.23 6.59 6.59 0 002.65-1.07 6.19 6.19 0 001.92-2.06 7 7 0 00.86-2.82 21.79 21.79 0 00-.47-4.57l-2.92-17.43 2.89-.48 2.92 17.43a21.5 21.5 0 01.29 6.38 8.65 8.65 0 01-2.33 4.66 8.75 8.75 0 01-5.19 2.68 10.71 10.71 0 01-6.27-.66 8.19 8.19 0 01-4.07-3.86 23.43 23.43 0 01-1.55-6zM186 474.06l-.4-2.83 15.88-2.29.4 2.84-6.46.93 3.75 26.15-2.95.42-3.75-26.15zM209.61 497.36l-3.46-29.08 6-.71q6.52-.78 9.59-.08a12.74 12.74 0 017.23 4.35 15.78 15.78 0 013.42 8.43 15.43 15.43 0 01-1 7.92 12.1 12.1 0 01-4.32 5.48q-2.82 1.95-8.26 2.59zm2.46-3.08l3.36-.4a31.82 31.82 0 008.27-1.74 9.71 9.71 0 004.7-4.46 11.91 11.91 0 001.08-7 12.57 12.57 0 00-2.89-6.94 10.35 10.35 0 00-6.16-3.42 34.87 34.87 0 00-9.1.25l-2.05.24zM250.84 462.77a15.21 15.21 0 0111.48 3.46 15.39 15.39 0 01-8.59 27.16 15 15 0 01-11.34-3.5 14.65 14.65 0 01-5.39-10.36 15.62 15.62 0 011.36-8 15.08 15.08 0 0112.48-8.79zm.38 2.82a12.52 12.52 0 00-10.13 7.16 12.72 12.72 0 00-1.08 6.51 12.31 12.31 0 0013.36 11.3 12.51 12.51 0 006.15-2.19 11.84 11.84 0 004.12-4.89 12.8 12.8 0 001.07-6.5 12.42 12.42 0 00-2.16-6.14 12.14 12.14 0 00-4.95-4.1 12.43 12.43 0 00-6.38-1.15zM287 460.26a15.19 15.19 0 0111.35 3.85 15.39 15.39 0 01-9.54 26.89 15 15 0 01-11.21-3.88 14.66 14.66 0 01-5-10.54 15.61 15.61 0 011.63-7.92 15.12 15.12 0 0112.77-8.4zm.28 2.84a12 12 0 00-6.07 2 12.23 12.23 0 00-4.3 4.79 12.72 12.72 0 00-1.3 6.47 12.32 12.32 0 0013 11.75 12.56 12.56 0 006.22-2 11.8 11.8 0 004.28-4.75 12.53 12.53 0 001.29-6.45 12.38 12.38 0 00-1.95-6.21 12.19 12.19 0 00-4.8-4.27 12.4 12.4 0 00-6.4-1.33zM309.26 460l5.83-.14a35 35 0 016.62.24 7.57 7.57 0 014.3 2.46 7.32 7.32 0 011.75 4.79 7.86 7.86 0 01-1 4.23 7 7 0 01-3.15 2.82 14.76 14.76 0 01-5.75 1.08l10.85 13.34-3.62.09-10.88-13.31h-1.65l.32 13.59-2.92.07zm3 2.79l.23 9.95 5.05-.08a12.25 12.25 0 004.32-.66 4.49 4.49 0 002.14-1.8 5 5 0 00.72-2.76 4.7 4.7 0 00-.86-2.65 4.41 4.41 0 00-2.13-1.67 12.52 12.52 0 00-4.32-.42zM355.89 459.44l3 .09 5.39 21.25 9-20.86h.6l7.71 21.32 6.67-20.92 3 .08-9.22 29h-.54l-8.07-22.38-9.5 21.98h-.55zM409.32 461.51l11.87 30.05-3.16-.19-4-9.89-12.59-.76-5.14 9.34-3.25-.2 15.57-28.39zm-.74 6.19l-5.65 10.3 10 .6zM428.23 462.79l5.81.5a35.49 35.49 0 016.55 1 7.55 7.55 0 014 2.92 7.32 7.32 0 011.21 4.95 7.79 7.79 0 01-1.49 4.1 7 7 0 01-3.43 2.45 14.91 14.91 0 01-5.84.44l9.32 14.46-3.6-.32-9.32-14.45-1.65-.14-1.17 13.54-2.92-.25zm2.67 3.11l-.85 9.91 5 .48a12.52 12.52 0 004.37-.18 4.5 4.5 0 002.33-1.59 4.84 4.84 0 001-2.66 4.67 4.67 0 00-.56-2.73 4.45 4.45 0 00-1.94-1.9 12.79 12.79 0 00-4.24-.89zM453.38 465.06l5.8.64a34.83 34.83 0 016.52 1.12 7.51 7.51 0 013.94 3 7.34 7.34 0 011.09 5 7.84 7.84 0 01-1.58 4.06 7 7 0 01-3.5 2.37 14.9 14.9 0 01-5.84.31l9 14.67-3.6-.4-9-14.67-1.64-.18-1.49 13.51-2.91-.32zm2.59 3.17l-1.09 9.89 5 .59a12.6 12.6 0 004.37-.07 4.49 4.49 0 002.38-1.54 4.94 4.94 0 001.08-2.63 4.73 4.73 0 00-.5-2.75 4.48 4.48 0 00-1.89-1.94 12.9 12.9 0 00-4.22-1zM490.24 469.5l9.56 30.86-3.13-.42-3.25-10.17-12.5-1.71-5.83 8.94-3.23-.44 17.67-27.13zm-1.24 6.12l-6.4 9.82 9.91 1.35zM504.1 501.05l4.8-28.88.63.1 15.54 25.34 3.68-22.14 2.85.48-4.81 28.88-.64-.11-15.43-25-3.64 21.87zM535.72 479.63l.54-2.81 15.76 3-.54 2.82-6.41-1.22-4.93 25.95-2.94-.56 4.93-25.95zM554.35 480.25l3.29.7 4.84 13.36 9.71-10.3 3.31.7-12.23 13.05-2.89 13.69-2.82-.6 2.89-13.69z"></path><path class="cls-12" d="M142.87 479.81a15.17 15.17 0 0111.79 2.19 15.39 15.39 0 01-5.46 27.95 15 15 0 01-11.66-2.19A14.63 14.63 0 01131 498a15.54 15.54 0 01.45-8.07 14.8 14.8 0 014.33-6.64 15 15 0 017.09-3.48zm.69 2.76a12.49 12.49 0 00-9.25 8.26 12.62 12.62 0 00-.34 6.59 12.32 12.32 0 0014.56 9.72 12.46 12.46 0 005.85-2.88 11.79 11.79 0 003.54-5.32 12.59 12.59 0 00.33-6.58 12.4 12.4 0 00-2.84-5.85A12.19 12.19 0 00150 483a12.42 12.42 0 00-6.44-.43zM165 476.32l2.89-.47 2.88 17.43a33.53 33.53 0 00.76 3.85 6.48 6.48 0 001.47 2.7 6 6 0 002.74 1.52 7.48 7.48 0 003.4.23 6.44 6.44 0 002.65-1.06 6.16 6.16 0 001.92-2 7.07 7.07 0 00.87-2.83 22.19 22.19 0 00-.46-4.56l-2.88-17.44 2.89-.48L187 490.6a21.46 21.46 0 01.28 6.38 8.61 8.61 0 01-2.34 4.65 8.81 8.81 0 01-5.2 2.68 10.67 10.67 0 01-6.26-.68 8.17 8.17 0 01-4.07-3.87 24 24 0 01-1.54-6zM189.3 475.29l-.4-2.84 15.88-2.25.4 2.84-6.46.92 3.7 26.15-3 .42-3.7-26.16zM212.89 498.64l-3.4-29.09 6-.7q6.53-.77 9.59-.06a12.79 12.79 0 017.22 4.37 15.8 15.8 0 013.4 8.44 15.4 15.4 0 01-1 7.91 12.25 12.25 0 01-4.33 5.48c-1.89 1.29-4.65 2.14-8.27 2.57zm2.46-3.08l3.36-.39a31.7 31.7 0 008.28-1.73 9.73 9.73 0 004.71-4.44 11.91 11.91 0 001.09-7 12.56 12.56 0 00-2.88-6.95 10.36 10.36 0 00-6.15-3.43 34.64 34.64 0 00-9.1.23l-2 .24zM254.19 464.13a15.19 15.19 0 0111.47 3.49 15.4 15.4 0 01-8.66 27.14 15 15 0 01-11.33-3.52 14.63 14.63 0 01-5.37-10.38 15.47 15.47 0 011.38-8 15.09 15.09 0 0112.5-8.77zm.37 2.83a12.46 12.46 0 00-10.14 7.13 12.73 12.73 0 00-1.1 6.51 12 12 0 004.35 8.48 11.88 11.88 0 009 2.85 12.5 12.5 0 006.15-2.18 11.83 11.83 0 004.13-4.88 12.77 12.77 0 001.09-6.49 12.45 12.45 0 00-2.15-6.15 12.13 12.13 0 00-4.94-4.11 12.32 12.32 0 00-6.39-1.12zM290.32 461.7a15.18 15.18 0 0111.34 3.88 15.39 15.39 0 01-9.56 26.83 15 15 0 01-11.2-3.91 14.62 14.62 0 01-5-10.55 15.57 15.57 0 011.65-7.91 15.08 15.08 0 0112.79-8.34zm.27 2.84a12 12 0 00-6.06 2 12.18 12.18 0 00-4.32 4.78 12.7 12.7 0 00-1.31 6.47 12.33 12.33 0 0013 11.78 12.58 12.58 0 006.22-2 11.94 11.94 0 004.29-4.74 12.62 12.62 0 001.3-6.45 12.43 12.43 0 00-1.93-6.22 12.19 12.19 0 00-4.8-4.27 12.37 12.37 0 00-6.39-1.35zM312.62 461.52l5.83-.13a35.24 35.24 0 016.61.26 7.57 7.57 0 014.3 2.46 7.35 7.35 0 011.73 4.8 7.77 7.77 0 01-1 4.23 7 7 0 01-3.19 2.86 14.78 14.78 0 01-5.75 1.07L332 490.39l-3.63.07-10.84-13.36h-1.65l.29 13.6-2.92.06zm3 2.8l.22 9.95 5-.07a12.55 12.55 0 004.33-.65 4.49 4.49 0 002.15-1.83 4.94 4.94 0 00.73-2.75 4.71 4.71 0 00-.86-2.66 4.49 4.49 0 00-2.13-1.68 12.71 12.71 0 00-4.31-.42zM359.25 461l3 .09 5.35 21.27 9-20.84h.61l7.66 21.33L391.6 462l3 .09-9.28 29h-.54l-8-22.4-9.51 21.88h-.55zM412.67 463.21l11.8 30.08-3.15-.2-4-9.9-12.59-.79-5.15 9.33-3.26-.2L412 463.17zm-.75 6.19l-5.67 10.26 10 .63zM431.58 464.53l5.81.52a35.38 35.38 0 016.55 1 7.58 7.58 0 014 2.92 7.42 7.42 0 011.2 5 7.85 7.85 0 01-1.5 4.09 7 7 0 01-3.44 2.45 14.69 14.69 0 01-5.83.43l9.28 14.47-3.6-.32-9.29-14.47-1.65-.14-1.2 13.52-2.91-.3zm2.66 3.12l-.88 9.91 5 .49a12.45 12.45 0 004.36-.18 4.47 4.47 0 002.35-1.58 5 5 0 001-2.65 4.72 4.72 0 00-.56-2.74 4.43 4.43 0 00-1.93-1.9 12.74 12.74 0 00-4.24-.9zM456.72 466.86l5.8.65a35.45 35.45 0 016.52 1.13 7.59 7.59 0 013.93 3 7.34 7.34 0 011.08 5 7.85 7.85 0 01-1.59 4.06 7.08 7.08 0 01-3.5 2.36 14.73 14.73 0 01-5.84.3l8.94 14.64-3.59-.4-9-14.69-1.64-.18-1.52 13.51-2.91-.33zm2.59 3.17l-1.11 9.89 5 .6a12.36 12.36 0 004.37-.07 4.53 4.53 0 002.38-1.52 4.94 4.94 0 001.05-2.63 4.71 4.71 0 00-.49-2.75 4.45 4.45 0 00-1.89-1.95 12.64 12.64 0 00-4.22-1zM493.58 471.38l9.49 30.88-3.13-.44-3.24-10.17-12.49-1.74-5.84 8.92-3.24-.45 17.74-27.1zm-1.23 6.11l-6.42 9.81 9.91 1.37zM507.39 503l4.87-28.87.62.1 15.49 25.38 3.73-22.14 2.85.48-4.87 28.88-.65-.11-15.37-25.12-3.69 21.86zM539.06 481.61l.54-2.82 15.75 3-.54 2.82-6.41-1.24-5 25.94-2.93-.56 5-25.94zM557.66 482.26l3.29.7 4.81 13.38 9.73-10.28 3.31.71-12.26 13-2.91 13.68-2.83-.6 2.92-13.69z"></path></g></g></svg>